# xmcd
#
# Track frame offsets: 
#        150
#        13118
#        31820
#        66207
#        87486
#        111966
#        130672
#        141903
#        179378
#        208416
#        234842
#        258848
#        278783
#
# Disc length: 4156 seconds
#
# Revision: 3
# Processed by: cddbd v1.5.2PL0 Copyright (c) Steve Scherf et al.
# Submitted via: ExactAudioCopy v1.0b4
#
DISCID=b8103a0d
DTITLE=Various Artist - The Ultimate Blues Box Disc 3 - Blues Guitar 
DTITLE=Masters
DYEAR=2000
DGENRE=Blues
TTITLE0=Fleetwood Mac feat. Peter Green - Man Of The World
TTITLE1=Mississipi Fred McDowell - Someday (Live)
TTITLE2=B.B. King - Outside Help
TTITLE3=Calvin Leavy - Cummins Prison Farm
TTITLE4=Albert King - Born Under A Bad Sign
TTITLE5=Robert Cray - The Score
TTITLE6=Johnny Winter - Gangster Of Love
TTITLE7=Freddy King - Red Light, Green Light (Live)
TTITLE8=Luther Allison - You Don't Love Me
TTITLE9=Clarence 'Gatemouth' Brown - Frosty (Live)
TTITLE10=John Mayalls Blues Breakers feat. Walter Trout - One Life To 
TTITLE10=Live
TTITLE11=Albert Collins - Too Many Dirty Dishes (Live)
TTITLE12=Roy Buchanan - Blues In E (Live)
EXTD=The Ultimate Blues Box [CD 3 of 6)
EXTT0=
EXTT1=
EXTT2=
EXTT3=
EXTT4=
EXTT5=
EXTT6=
EXTT7=
EXTT8=
EXTT9=
EXTT10=
EXTT11=
EXTT12=
PLAYORDER=
